<svg xmlns="http://www.w3.org/2000/svg" viewBox="0 0 1000 768"><defs><style>.cls-1{fill:#fff;}</style></defs><g id="Lager_5" data-name="Lager 5"><path class="cls-1" d="M604.31,333.52V515.37H533.63V388.51l-34.79,51.41-28.85.26-42.4-51.67V515.37H357.4v-162c15-22.28,77.58-19.81,111.86-19.78l.55.7L484.66,353l13.6-18.74.56-.77Z"/><path class="cls-1" d="M852.22,515h-81L729,431.55H682.5V515H612.62V333.52H682.5v43.12h38.4q16.13,0,26.5-9.79t10.36-25.15a48,48,0,0,0-.66-8.18h72.58q.27,4,.27,8.18,0,23-9.41,40.51a79.28,79.28,0,0,1-25.92,28.6Z"/><path class="cls-1" d="M829,326.46H279c-31.64,0-57.39,26.11-57.39,57.74A57.46,57.46,0,0,0,279,441.59c1,0,2.07,0,3.19-.09l1.58-.08,64.46-.21v74.17H279A131.32,131.32,0,0,1,147.78,384.2c0-68.37,57.71-131.58,119.49-131.58l289.85,0H726.54q44.09.93,73.07,22.21Q824.51,293.18,829,326.46Z"/></g></svg>