<svg xmlns="http://www.w3.org/2000/svg" viewBox="0 0 704.44 262.76"><g id="Lager_2" data-name="Lager 2"><g id="Lager_5" data-name="Lager 5"><path d="M456.53,80.9V262.75H385.85V135.89L351.06,187.3l-28.85.26-42.4-51.67V262.75H209.62v-162c15-22.28,77.58-19.81,111.86-19.78l.55.7,14.85,18.74,13.6-18.74.56-.77Z"/><path d="M704.44,262.38h-81l-42.24-83.45H534.72v83.45H464.84V80.9h69.88V124h38.4q16.13,0,26.5-9.79T610,89.08a48,48,0,0,0-.66-8.18H681.9q.27,4,.27,8.18,0,23-9.41,40.51a79.28,79.28,0,0,1-25.92,28.6Z"/><path d="M681.19,73.84h-550c-31.64,0-57.39,26.11-57.39,57.74A57.46,57.46,0,0,0,131.18,189c1,0,2.07,0,3.19-.09l1.58-.08,64.46-.21v74.17H131.18A131.32,131.32,0,0,1,0,131.58C0,63.21,57.71,0,119.49,0L409.34,0H578.76q44.09.93,73.07,22.21Q676.73,40.56,681.19,73.84Z"/></g></g></svg>